<svg width="314" height="58" viewBox="0 0 314 58" fill="none" xmlns="http://www.w3.org/2000/svg">
<path d="M0 37.0714L21.3158 8H59.2105L44.2105 22.9286H30V14.6786L12.6316 37.0714H25.2632V48.4643L44.2105 23.3214H60L36.3158 52H1.57895L12.6316 37.0714H0Z" fill="white"/>
<path d="M91.9688 21.1308C91.8324 19.7558 91.2471 18.6876 90.213 17.9262C89.1789 17.1649 87.7755 16.7842 86.0028 16.7842C84.7982 16.7842 83.7812 16.9546 82.9516 17.2956C82.1221 17.6251 81.4857 18.0853 81.0426 18.6762C80.6107 19.2671 80.3948 19.9376 80.3948 20.6876C80.3721 21.3126 80.5028 21.8581 80.7869 22.324C81.0823 22.7899 81.4857 23.1933 81.9971 23.5342C82.5085 23.8637 83.0994 24.1535 83.7698 24.4035C84.4403 24.6421 85.1562 24.8467 85.9176 25.0171L89.0539 25.7671C90.5766 26.1081 91.9744 26.5626 93.2471 27.1308C94.5198 27.699 95.6221 28.3978 96.5539 29.2274C97.4857 30.0569 98.2074 31.0342 98.7188 32.1592C99.2415 33.2842 99.5085 34.574 99.5198 36.0285C99.5085 38.1649 98.963 40.0171 97.8835 41.5853C96.8153 43.1421 95.2698 44.3524 93.2471 45.216C91.2357 46.0683 88.8096 46.4944 85.9688 46.4944C83.1505 46.4944 80.696 46.0626 78.6051 45.199C76.5255 44.3353 74.9005 43.0569 73.7301 41.3637C72.571 39.6592 71.9631 37.5512 71.9062 35.0399H79.0482C79.1278 36.2103 79.463 37.1876 80.0539 37.9717C80.6562 38.7444 81.4573 39.3296 82.4573 39.7274C83.4687 40.1137 84.6107 40.3069 85.8835 40.3069C87.1335 40.3069 88.2187 40.1251 89.1391 39.7615C90.071 39.3978 90.7926 38.8921 91.3039 38.2444C91.8153 37.5967 92.071 36.8524 92.071 36.0115C92.071 35.2274 91.838 34.5683 91.3721 34.0342C90.9176 33.5001 90.2471 33.0456 89.3607 32.6706C88.4857 32.2956 87.4119 31.9546 86.1391 31.6478L82.338 30.6933C79.3948 29.9774 77.071 28.8581 75.3664 27.3353C73.6619 25.8126 72.8153 23.7615 72.8266 21.1819C72.8153 19.0683 73.3778 17.2217 74.5141 15.6421C75.6619 14.0626 77.2357 12.8296 79.2357 11.9433C81.2357 11.0569 83.5085 10.6137 86.0539 10.6137C88.6448 10.6137 90.9062 11.0569 92.838 11.9433C94.7812 12.8296 96.2926 14.0626 97.3721 15.6421C98.4516 17.2217 99.0085 19.0512 99.0426 21.1308H91.9688ZM102.908 46.0001V19.8183H110.169V46.0001H102.908ZM106.556 16.4433C105.476 16.4433 104.55 16.0853 103.777 15.3694C103.016 14.6421 102.635 13.7728 102.635 12.7615C102.635 11.7615 103.016 10.9035 103.777 10.1876C104.55 9.46032 105.476 9.09668 106.556 9.09668C107.635 9.09668 108.556 9.46032 109.317 10.1876C110.09 10.9035 110.476 11.7615 110.476 12.7615C110.476 13.7728 110.09 14.6421 109.317 15.3694C108.556 16.0853 107.635 16.4433 106.556 16.4433ZM128.472 19.8183V25.2728H112.705V19.8183H128.472ZM116.285 13.5456H123.546V37.9546C123.546 38.6251 123.648 39.1478 123.853 39.5228C124.057 39.8865 124.341 40.1421 124.705 40.2899C125.08 40.4376 125.512 40.5115 126.001 40.5115C126.341 40.5115 126.682 40.4831 127.023 40.4262C127.364 40.3581 127.626 40.3069 127.807 40.2728L128.949 45.6762C128.586 45.7899 128.074 45.9206 127.415 46.0683C126.756 46.2274 125.955 46.324 125.012 46.3581C123.262 46.4262 121.728 46.1933 120.41 45.6592C119.103 45.1251 118.086 44.2956 117.358 43.1706C116.631 42.0456 116.273 40.6251 116.285 38.9092V13.5456ZM143.413 46.5115C140.72 46.5115 138.401 45.966 136.458 44.8751C134.526 43.7728 133.038 42.216 131.992 40.2046C130.947 38.1819 130.424 35.7899 130.424 33.0285C130.424 30.3353 130.947 27.9717 131.992 25.9376C133.038 23.9035 134.509 22.3183 136.407 21.1819C138.316 20.0456 140.555 19.4774 143.123 19.4774C144.85 19.4774 146.458 19.7558 147.947 20.3126C149.447 20.8581 150.754 21.6819 151.867 22.7842C152.992 23.8865 153.867 25.2728 154.492 26.9433C155.117 28.6024 155.43 30.5456 155.43 32.7728V34.7671H133.322V30.2671H148.595C148.595 29.2217 148.367 28.2956 147.913 27.4887C147.458 26.6819 146.828 26.0512 146.021 25.5967C145.225 25.1308 144.299 24.8978 143.242 24.8978C142.14 24.8978 141.163 25.1535 140.311 25.6649C139.47 26.1649 138.811 26.841 138.333 27.6933C137.856 28.5342 137.612 29.4717 137.6 30.5058V34.7842C137.6 36.0796 137.839 37.199 138.316 38.1421C138.805 39.0853 139.492 39.8126 140.379 40.324C141.265 40.8353 142.316 41.091 143.532 41.091C144.339 41.091 145.078 40.9774 145.748 40.7501C146.418 40.5228 146.992 40.1819 147.47 39.7274C147.947 39.2728 148.311 38.716 148.561 38.0569L155.276 38.5001C154.936 40.1137 154.237 41.5228 153.18 42.7274C152.134 43.9206 150.782 44.8524 149.123 45.5228C147.475 46.1819 145.572 46.5115 143.413 46.5115ZM158.865 46.0001V11.091H172.842C175.41 11.091 177.552 11.4717 179.268 12.2331C180.984 12.9944 182.274 14.0512 183.138 15.4035C184.001 16.7444 184.433 18.2899 184.433 20.0399C184.433 21.4035 184.16 22.6024 183.615 23.6365C183.069 24.6592 182.319 25.5001 181.365 26.1592C180.422 26.8069 179.342 27.2671 178.126 27.5399V27.8808C179.456 27.9376 180.7 28.3126 181.859 29.0058C183.03 29.699 183.978 30.6706 184.706 31.9206C185.433 33.1592 185.797 34.6365 185.797 36.3524C185.797 38.2046 185.336 39.8581 184.416 41.3126C183.507 42.7558 182.16 43.8978 180.376 44.7387C178.592 45.5796 176.393 46.0001 173.78 46.0001H158.865ZM166.246 39.966H172.263C174.319 39.966 175.819 39.574 176.763 38.7899C177.706 37.9944 178.177 36.9376 178.177 35.6194C178.177 34.6535 177.944 33.8012 177.478 33.0626C177.013 32.324 176.348 31.7444 175.484 31.324C174.632 30.9035 173.615 30.6933 172.433 30.6933H166.246V39.966ZM166.246 25.699H171.717C172.728 25.699 173.626 25.5228 174.41 25.1706C175.206 24.8069 175.831 24.2956 176.285 23.6365C176.751 22.9774 176.984 22.1876 176.984 21.2671C176.984 20.0058 176.535 18.9887 175.638 18.216C174.751 17.4433 173.49 17.0569 171.853 17.0569H166.246V25.699ZM205.813 34.8524V19.8183H213.074V46.0001H206.102V41.2444H205.83C205.239 42.7785 204.256 44.0115 202.881 44.9433C201.517 45.8751 199.852 46.341 197.886 46.341C196.136 46.341 194.597 45.9433 193.267 45.1478C191.938 44.3524 190.898 43.2217 190.148 41.7558C189.409 40.2899 189.034 38.5342 189.023 36.4887V19.8183H196.284V35.1933C196.296 36.7387 196.71 37.9603 197.529 38.8581C198.347 39.7558 199.443 40.2046 200.818 40.2046C201.693 40.2046 202.511 40.0058 203.273 39.6081C204.034 39.199 204.648 38.5967 205.114 37.8012C205.591 37.0058 205.824 36.0228 205.813 34.8524ZM217.442 46.0001V19.8183H224.704V46.0001H217.442ZM221.09 16.4433C220.01 16.4433 219.084 16.0853 218.312 15.3694C217.55 14.6421 217.17 13.7728 217.17 12.7615C217.17 11.7615 217.55 10.9035 218.312 10.1876C219.084 9.46032 220.01 9.09668 221.09 9.09668C222.17 9.09668 223.09 9.46032 223.851 10.1876C224.624 10.9035 225.01 11.7615 225.01 12.7615C225.01 13.7728 224.624 14.6421 223.851 15.3694C223.09 16.0853 222.17 16.4433 221.09 16.4433ZM236.342 11.091V46.0001H229.08V11.091H236.342ZM250.366 46.4262C248.378 46.4262 246.576 45.9149 244.963 44.8921C243.361 43.8581 242.088 42.341 241.145 40.341C240.213 38.3296 239.747 35.8637 239.747 32.9433C239.747 29.9433 240.23 27.449 241.196 25.4603C242.162 23.4603 243.446 21.966 245.048 20.9774C246.662 19.9774 248.429 19.4774 250.349 19.4774C251.815 19.4774 253.037 19.7274 254.014 20.2274C255.003 20.716 255.798 21.3296 256.4 22.0683C257.014 22.7956 257.48 23.5115 257.798 24.216H258.02V11.091H265.264V46.0001H258.105V41.8069H257.798C257.457 42.5342 256.974 43.2558 256.349 43.9717C255.736 44.6762 254.934 45.2615 253.946 45.7274C252.968 46.1933 251.775 46.4262 250.366 46.4262ZM252.667 40.6478C253.838 40.6478 254.826 40.3296 255.633 39.6933C256.451 39.0456 257.076 38.1421 257.508 36.9831C257.951 35.824 258.173 34.466 258.173 32.9092C258.173 31.3524 257.957 30.0001 257.525 28.8524C257.093 27.7046 256.468 26.8183 255.65 26.1933C254.832 25.5683 253.838 25.2558 252.667 25.2558C251.474 25.2558 250.468 25.5796 249.65 26.2274C248.832 26.8751 248.213 27.7728 247.792 28.9206C247.372 30.0683 247.162 31.3978 247.162 32.9092C247.162 34.4319 247.372 35.7785 247.792 36.949C248.224 38.1081 248.843 39.0171 249.65 39.6762C250.468 40.324 251.474 40.6478 252.667 40.6478ZM281.726 46.5115C279.033 46.5115 276.715 45.966 274.771 44.8751C272.84 43.7728 271.351 42.216 270.305 40.2046C269.26 38.1819 268.737 35.7899 268.737 33.0285C268.737 30.3353 269.26 27.9717 270.305 25.9376C271.351 23.9035 272.823 22.3183 274.72 21.1819C276.629 20.0456 278.868 19.4774 281.436 19.4774C283.163 19.4774 284.771 19.7558 286.26 20.3126C287.76 20.8581 289.067 21.6819 290.18 22.7842C291.305 23.8865 292.18 25.2728 292.805 26.9433C293.43 28.6024 293.743 30.5456 293.743 32.7728V34.7671H271.635V30.2671H286.908C286.908 29.2217 286.68 28.2956 286.226 27.4887C285.771 26.6819 285.141 26.0512 284.334 25.5967C283.538 25.1308 282.612 24.8978 281.555 24.8978C280.453 24.8978 279.476 25.1535 278.624 25.6649C277.783 26.1649 277.124 26.841 276.646 27.6933C276.169 28.5342 275.925 29.4717 275.913 30.5058V34.7842C275.913 36.0796 276.152 37.199 276.629 38.1421C277.118 39.0853 277.805 39.8126 278.692 40.324C279.578 40.8353 280.629 41.091 281.845 41.091C282.652 41.091 283.391 40.9774 284.061 40.7501C284.732 40.5228 285.305 40.1819 285.783 39.7274C286.26 39.2728 286.624 38.716 286.874 38.0569L293.59 38.5001C293.249 40.1137 292.55 41.5228 291.493 42.7274C290.448 43.9206 289.095 44.8524 287.436 45.5228C285.788 46.1819 283.885 46.5115 281.726 46.5115ZM297.042 46.0001V19.8183H304.081V24.3865H304.354C304.831 22.7615 305.633 21.5342 306.758 20.7046C307.883 19.8637 309.178 19.4433 310.644 19.4433C311.008 19.4433 311.4 19.466 311.82 19.5115C312.24 19.5569 312.61 19.6194 312.928 19.699V26.1421C312.587 26.0399 312.115 25.949 311.513 25.8694C310.911 25.7899 310.36 25.7501 309.86 25.7501C308.792 25.7501 307.837 25.9831 306.996 26.449C306.167 26.9035 305.508 27.5399 305.019 28.3581C304.542 29.1762 304.303 30.1194 304.303 31.1876V46.0001H297.042Z" fill="white"/>
</svg>
